# xmcd
#
# Track frame offsets:
#	182
#	14595
#	27617
#	39807
#	54987
#	71892
#	87535
#	102040
#	127862
#	137485
#	150592
#	181157
#	204562
#	217492
#	230092
#	245647
#
# Disc length: 3542
#
# Revision: 1
# Processed by: cddbd v1.5.1PL0 Copyright (c) Steve Scherf et al.
# Submitted via: CDex 1.51
# Normalized: r0:DSETVAR1,TDELIM( - )
#
DISCID=e40dd410
DTITLE=Various Artist - 16 All-time Jazz Sessions vol4
DYEAR=1988
DGENRE=Jazz
TTITLE0=Les Brown - Harlem Nocturne
TTITLE1=Dave Brubeck - Am I blue
TTITLE2=Benny Goodman - I'm gonna sit right down and write myself a Letter
TTITLE3=Ella Fitzgerald - Fascinating Rythm
TTITLE4=Count Basie - 920 Special
TTITLE5=Harry James - Squeeze Me
TTITLE6=Charlie Parker - My old Flame
TTITLE7=Miles Davis - But not for Me (part 2)
TTITLE8=Louis Armstrong - Panama Rag
TTITLE9=Lena Horne - Honeysuckle Rose
TTITLE10=Art Blakey - Koko's Waltz
TTITLE11=Lionel Hampton - Jam for Brigitte
TTITLE12=Django Reinhart - Charleston
TTITLE13=Duke Ellington - The Wonder of You
TTITLE14=George Shearing - The Outlaw
TTITLE15=Modern Jazz Quartet - Woody'n You
EXTD=YEAR: 1988
EXTT0=
EXTT1=
EXTT2=
EXTT3=
EXTT4=
EXTT5=
EXTT6=
EXTT7=
EXTT8=
EXTT9=
EXTT10=
EXTT11=
EXTT12=
EXTT13=
EXTT14=
EXTT15=
PLAYORDER=
